<svg width="77" height="17" viewBox="0 0 77 17" fill="none" xmlns="http://www.w3.org/2000/svg">
<path fill-rule="evenodd" clip-rule="evenodd" d="M6.10678 0C2.7341 0 0 2.7341 0 6.10678V16.4011H4.44893V7.67711C4.44893 5.94259 5.85504 4.53648 7.58956 4.53648H16.3138V0H6.10678Z" fill="#3FFF00"/>
<path d="M7.41602 8.98438C7.41602 8.11712 8.11907 7.41406 8.98633 7.41406H12.127V12.125H7.41602V8.98438Z" fill="#3FFF00"/>
<path d="M20.5592 13.2012V3.6283H27.0633V5.2713H22.6774V7.60681H26.751V9.23624H22.6774V13.2012H20.5592ZM28.2735 13.2012V3.20736H30.3239V13.2012H28.2735ZM34.6746 13.3505C34.0772 13.3505 33.5521 13.2057 33.0995 12.916C32.6469 12.6263 32.2938 12.2145 32.0404 11.6804C31.7869 11.1463 31.6602 10.5036 31.6602 9.75222C31.6602 9.00993 31.7869 8.37174 32.0404 7.83765C32.2938 7.30356 32.6469 6.8962 33.0995 6.61558C33.5521 6.3259 34.0772 6.18107 34.6746 6.18107C35.2268 6.18107 35.7202 6.31685 36.1547 6.58842C36.5982 6.85094 36.8879 7.20851 37.0237 7.66113H36.8743L37.0373 6.31685H39.0062C38.979 6.61558 38.9519 6.91883 38.9247 7.22661C38.9066 7.52534 38.8975 7.81954 38.8975 8.10922V13.2012H36.8608L36.8472 11.9112H37.0101C36.8653 12.3457 36.5756 12.6942 36.1411 12.9568C35.7066 13.2193 35.2178 13.3505 34.6746 13.3505ZM35.2992 11.8026C35.77 11.8026 36.1501 11.6351 36.4398 11.3002C36.7295 10.9652 36.8743 10.4493 36.8743 9.75222C36.8743 9.05519 36.7295 8.54373 36.4398 8.21785C36.1501 7.89196 35.77 7.72902 35.2992 7.72902C34.8285 7.72902 34.4483 7.89196 34.1586 8.21785C33.869 8.54373 33.7241 9.05519 33.7241 9.75222C33.7241 10.4493 33.8644 10.9652 34.1451 11.3002C34.4347 11.6351 34.8195 11.8026 35.2992 11.8026ZM43.8515 16.2428C43.1907 16.2428 42.6023 16.1749 42.0863 16.0391C41.5703 15.9124 41.1086 15.7177 40.7013 15.4552L41.095 13.9887C41.3485 14.1517 41.6155 14.2829 41.8962 14.3825C42.1858 14.4911 42.48 14.5681 42.7788 14.6133C43.0866 14.6677 43.3898 14.6948 43.6885 14.6948C44.295 14.6948 44.7477 14.55 45.0464 14.2603C45.3451 13.9706 45.4945 13.5587 45.4945 13.0247V11.5989H45.6303C45.4854 12.0334 45.1958 12.3819 44.7612 12.6445C44.3267 12.907 43.8379 13.0382 43.2948 13.0382C42.6792 13.0382 42.1406 12.8979 41.6789 12.6173C41.2263 12.3367 40.8733 11.9384 40.6198 11.4224C40.3663 10.9064 40.2396 10.2999 40.2396 9.60286C40.2396 8.90583 40.3663 8.29932 40.6198 7.78333C40.8733 7.26735 41.2263 6.87357 41.6789 6.602C42.1406 6.32138 42.6792 6.18107 43.2948 6.18107C43.847 6.18107 44.3313 6.31232 44.7477 6.57484C45.1731 6.82831 45.4583 7.16777 45.6031 7.59323L45.4945 7.53892L45.6303 6.31685H47.6127C47.5765 6.61558 47.5494 6.91883 47.5313 7.22661C47.5132 7.52534 47.5041 7.81954 47.5041 8.10922V12.7938C47.5041 13.9073 47.1918 14.7582 46.5672 15.3466C45.9426 15.944 45.0373 16.2428 43.8515 16.2428ZM43.9058 11.4903C44.3856 11.4903 44.7658 11.3273 45.0464 11.0014C45.327 10.6756 45.4673 10.2094 45.4673 9.60286C45.4673 8.99635 45.327 8.53468 45.0464 8.21785C44.7658 7.89196 44.3856 7.72902 43.9058 7.72902C43.4079 7.72902 43.0141 7.89196 42.7245 8.21785C42.4438 8.53468 42.3035 8.99635 42.3035 9.60286C42.3035 10.2094 42.4438 10.6756 42.7245 11.0014C43.0141 11.3273 43.4079 11.4903 43.9058 11.4903ZM51.7109 13.3505C51.0954 13.3505 50.5341 13.2826 50.0272 13.1469C49.5202 13.0111 49.0903 12.821 48.7372 12.5766L49.2668 11.2187C49.6198 11.436 50.0091 11.608 50.4345 11.7347C50.869 11.8614 51.299 11.9248 51.7245 11.9248C52.1228 11.9248 52.417 11.8614 52.6071 11.7347C52.7972 11.608 52.8922 11.436 52.8922 11.2187C52.8922 11.0377 52.8289 10.8973 52.7021 10.7978C52.5845 10.6982 52.3989 10.6258 52.1454 10.5805L50.7468 10.3225C50.1584 10.2048 49.7103 9.98758 49.4026 9.67075C49.0948 9.35392 48.9409 8.94204 48.9409 8.4351C48.9409 7.99154 49.0586 7.60229 49.2939 7.26735C49.5383 6.92336 49.8869 6.65631 50.3395 6.46621C50.7921 6.27612 51.3217 6.18107 51.9282 6.18107C52.4442 6.18107 52.933 6.24443 53.3947 6.37117C53.8563 6.4979 54.2501 6.69252 54.576 6.95504L54.0193 8.27216C53.7386 8.06396 53.4128 7.89649 53.0416 7.76976C52.6795 7.64302 52.331 7.57966 51.9961 7.57966C51.5615 7.57966 51.2492 7.65207 51.0591 7.79691C50.869 7.9327 50.774 8.10922 50.774 8.32648C50.774 8.48942 50.8283 8.6252 50.9369 8.73383C51.0546 8.84246 51.2311 8.92393 51.4665 8.97825L52.8787 9.23624C53.4852 9.34487 53.9468 9.54854 54.2637 9.84727C54.5805 10.146 54.7389 10.5579 54.7389 11.0829C54.7389 11.5627 54.6122 11.9701 54.3587 12.305C54.1053 12.6399 53.7477 12.8979 53.286 13.079C52.8334 13.26 52.3084 13.3505 51.7109 13.3505ZM56.014 13.2012V3.20736H58.0644V7.60681H57.8607C58.078 7.14514 58.3993 6.7921 58.8248 6.54769C59.2503 6.30327 59.7391 6.18107 60.2913 6.18107C61.0969 6.18107 61.6989 6.41643 62.0972 6.88715C62.4955 7.34882 62.6947 8.05943 62.6947 9.01898V13.2012H60.6443V9.11403C60.6443 8.63426 60.5538 8.29027 60.3727 8.08206C60.2008 7.87386 59.9292 7.76976 59.558 7.76976C59.1054 7.76976 58.7433 7.91007 58.4718 8.19069C58.2002 8.47131 58.0644 8.84699 58.0644 9.31771V13.2012H56.014ZM64.3415 13.2012V6.31685H66.3919V13.2012H64.3415ZM64.26 5.18983V3.27526H66.4598V5.18983H64.26ZM68.0676 16.1341V8.10922C68.0676 7.81954 68.0586 7.52534 68.0405 7.22661C68.0224 6.91883 67.9952 6.61558 67.959 6.31685H69.9279L70.0908 7.66113H69.9415C70.0773 7.20851 70.3624 6.85094 70.7969 6.58842C71.2314 6.31685 71.7293 6.18107 72.2906 6.18107C72.888 6.18107 73.4131 6.3259 73.8657 6.61558C74.3183 6.8962 74.6713 7.30356 74.9248 7.83765C75.1873 8.37174 75.3186 9.00993 75.3186 9.75222C75.3186 10.5036 75.1873 11.1463 74.9248 11.6804C74.6713 12.2145 74.3183 12.6263 73.8657 12.916C73.4131 13.2057 72.888 13.3505 72.2906 13.3505C71.7384 13.3505 71.245 13.2193 70.8105 12.9568C70.385 12.6942 70.0999 12.3457 69.9551 11.9112H70.118V16.1341H68.0676ZM71.666 11.8026C72.1457 11.8026 72.5305 11.6351 72.8201 11.3002C73.1098 10.9652 73.2546 10.4493 73.2546 9.75222C73.2546 9.05519 73.1098 8.54373 72.8201 8.21785C72.5305 7.89196 72.1457 7.72902 71.666 7.72902C71.1952 7.72902 70.8105 7.89196 70.5118 8.21785C70.2221 8.54373 70.0773 9.05519 70.0773 9.75222C70.0773 10.4493 70.2221 10.9652 70.5118 11.3002C70.8105 11.6351 71.1952 11.8026 71.666 11.8026Z" fill="white"/>
</svg>
